<svg width="165" height="223" viewBox="0 0 165 223" fill="none" xmlns="http://www.w3.org/2000/svg">
<line x1="93.5" y1="-2.18557e-08" x2="93.5" y2="11" stroke="#35384B"/>
<line x1="99" y1="5.5" x2="88" y2="5.5" stroke="#35384B"/>
<line x1="93.5" y1="59" x2="93.5" y2="70" stroke="#35384B"/>
<line x1="99" y1="64.5" x2="88" y2="64.5" stroke="#35384B"/>
<line x1="93.5" y1="21" x2="93.5" y2="32" stroke="#35384B"/>
<line x1="99" y1="26.5" x2="88" y2="26.5" stroke="#35384B"/>
<line x1="93.5" y1="80" x2="93.5" y2="91" stroke="#35384B"/>
<line x1="99" y1="85.5" x2="88" y2="85.5" stroke="#35384B"/>
<line x1="115.5" y1="-2.18557e-08" x2="115.5" y2="11" stroke="#35384B"/>
<line x1="121" y1="5.5" x2="110" y2="5.5" stroke="#35384B"/>
<line x1="115.5" y1="59" x2="115.5" y2="70" stroke="#35384B"/>
<line x1="121" y1="64.5" x2="110" y2="64.5" stroke="#35384B"/>
<line x1="115.5" y1="21" x2="115.5" y2="32" stroke="#35384B"/>
<line x1="121" y1="26.5" x2="110" y2="26.5" stroke="#35384B"/>
<line x1="115.5" y1="80" x2="115.5" y2="91" stroke="#35384B"/>
<line x1="121" y1="85.5" x2="110" y2="85.5" stroke="#35384B"/>
<line x1="137.5" y1="-2.18557e-08" x2="137.5" y2="11" stroke="#35384B"/>
<line x1="143" y1="5.5" x2="132" y2="5.5" stroke="#35384B"/>
<line x1="137.5" y1="59" x2="137.5" y2="70" stroke="#35384B"/>
<line x1="143" y1="64.5" x2="132" y2="64.5" stroke="#35384B"/>
<line x1="137.5" y1="21" x2="137.5" y2="32" stroke="#35384B"/>
<line x1="143" y1="26.5" x2="132" y2="26.5" stroke="#35384B"/>
<line x1="137.5" y1="80" x2="137.5" y2="91" stroke="#35384B"/>
<line x1="143" y1="85.5" x2="132" y2="85.5" stroke="#35384B"/>
<line x1="159.5" y1="-2.18557e-08" x2="159.5" y2="11" stroke="#35384B"/>
<line x1="165" y1="5.5" x2="154" y2="5.5" stroke="#35384B"/>
<line x1="159.5" y1="59" x2="159.5" y2="70" stroke="#35384B"/>
<line x1="165" y1="64.5" x2="154" y2="64.5" stroke="#35384B"/>
<line x1="159.5" y1="21" x2="159.5" y2="32" stroke="#35384B"/>
<line x1="165" y1="26.5" x2="154" y2="26.5" stroke="#35384B"/>
<line x1="159.5" y1="80" x2="159.5" y2="91" stroke="#35384B"/>
<line x1="165" y1="85.5" x2="154" y2="85.5" stroke="#35384B"/>
<rect x="90" y="42" width="7" height="7" rx="1" fill="#35384B"/>
<rect x="112" y="42" width="7" height="7" rx="1" fill="#35384B"/>
<rect x="134" y="42" width="7" height="7" rx="1" fill="#35384B"/>
<rect x="156" y="42" width="7" height="7" rx="1" fill="#35384B"/>
<line x1="5.5" y1="-2.18557e-08" x2="5.5" y2="11" stroke="#35384B"/>
<line x1="11" y1="5.5" x2="-4.37114e-08" y2="5.5" stroke="#35384B"/>
<line x1="5.5" y1="59" x2="5.5" y2="70" stroke="#35384B"/>
<line x1="11" y1="64.5" x2="-4.37114e-08" y2="64.5" stroke="#35384B"/>
<line x1="5.5" y1="21" x2="5.5" y2="32" stroke="#35384B"/>
<line x1="11" y1="26.5" x2="-4.37114e-08" y2="26.5" stroke="#35384B"/>
<line x1="5.5" y1="80" x2="5.5" y2="91" stroke="#35384B"/>
<line x1="11" y1="85.5" x2="-4.37114e-08" y2="85.5" stroke="#35384B"/>
<line x1="27.5" y1="-2.18557e-08" x2="27.5" y2="11" stroke="#35384B"/>
<line x1="33" y1="5.5" x2="22" y2="5.5" stroke="#35384B"/>
<line x1="27.5" y1="59" x2="27.5" y2="70" stroke="#35384B"/>
<line x1="33" y1="64.5" x2="22" y2="64.5" stroke="#35384B"/>
<line x1="27.5" y1="21" x2="27.5" y2="32" stroke="#35384B"/>
<line x1="33" y1="26.5" x2="22" y2="26.5" stroke="#35384B"/>
<line x1="27.5" y1="80" x2="27.5" y2="91" stroke="#35384B"/>
<line x1="33" y1="85.5" x2="22" y2="85.5" stroke="#35384B"/>
<line x1="49.5" y1="-2.18557e-08" x2="49.5" y2="11" stroke="#35384B"/>
<line x1="55" y1="5.5" x2="44" y2="5.5" stroke="#35384B"/>
<line x1="49.5" y1="59" x2="49.5" y2="70" stroke="#35384B"/>
<line x1="55" y1="64.5" x2="44" y2="64.5" stroke="#35384B"/>
<line x1="49.5" y1="21" x2="49.5" y2="32" stroke="#35384B"/>
<line x1="55" y1="26.5" x2="44" y2="26.5" stroke="#35384B"/>
<line x1="49.5" y1="80" x2="49.5" y2="91" stroke="#35384B"/>
<line x1="55" y1="85.5" x2="44" y2="85.5" stroke="#35384B"/>
<line x1="71.5" y1="-2.18557e-08" x2="71.5" y2="11" stroke="#35384B"/>
<line x1="77" y1="5.5" x2="66" y2="5.5" stroke="#35384B"/>
<line x1="71.5" y1="59" x2="71.5" y2="70" stroke="#35384B"/>
<line x1="77" y1="64.5" x2="66" y2="64.5" stroke="#35384B"/>
<line x1="71.5" y1="21" x2="71.5" y2="32" stroke="#35384B"/>
<line x1="77" y1="26.5" x2="66" y2="26.5" stroke="#35384B"/>
<line x1="71.5" y1="80" x2="71.5" y2="91" stroke="#35384B"/>
<line x1="77" y1="85.5" x2="66" y2="85.5" stroke="#35384B"/>
<rect y="42" width="7" height="7" rx="1" fill="#35384B"/>
<rect x="24" y="42" width="7" height="7" rx="1" fill="#35384B"/>
<rect x="46" y="42" width="7" height="7" rx="1" fill="#35384B"/>
<rect x="68" y="42" width="7" height="7" rx="1" fill="#35384B"/>
<rect x="66" y="184" width="40" height="39" rx="4" fill="#37394A"/>
</svg>
