<svg width="226" height="174" viewBox="0 0 226 174" fill="none" xmlns="http://www.w3.org/2000/svg">
<line x1="226" y1="90.5" x2="215" y2="90.5" stroke="#35384B"/>
<line x1="220.5" y1="96" x2="220.5" y2="85" stroke="#35384B"/>
<line x1="172" y1="95.5" x2="161" y2="95.5" stroke="#35384B"/>
<line x1="166.5" y1="101" x2="166.5" y2="90" stroke="#35384B"/>
<line x1="205" y1="100.5" x2="194" y2="100.5" stroke="#35384B"/>
<line x1="199.5" y1="106" x2="199.5" y2="95" stroke="#35384B"/>
<line x1="151" y1="105.5" x2="140" y2="105.5" stroke="#35384B"/>
<line x1="145.5" y1="111" x2="145.5" y2="100" stroke="#35384B"/>
<line x1="226" y1="111.5" x2="215" y2="111.5" stroke="#35384B"/>
<line x1="220.5" y1="117" x2="220.5" y2="106" stroke="#35384B"/>
<line x1="172" y1="116.5" x2="161" y2="116.5" stroke="#35384B"/>
<line x1="166.5" y1="122" x2="166.5" y2="111" stroke="#35384B"/>
<line x1="205" y1="121.5" x2="194" y2="121.5" stroke="#35384B"/>
<line x1="199.5" y1="127" x2="199.5" y2="116" stroke="#35384B"/>
<line x1="151" y1="126.5" x2="140" y2="126.5" stroke="#35384B"/>
<line x1="145.5" y1="132" x2="145.5" y2="121" stroke="#35384B"/>
<line x1="226" y1="132.5" x2="215" y2="132.5" stroke="#35384B"/>
<line x1="220.5" y1="138" x2="220.5" y2="127" stroke="#35384B"/>
<line x1="172" y1="137.5" x2="161" y2="137.5" stroke="#35384B"/>
<line x1="166.5" y1="143" x2="166.5" y2="132" stroke="#35384B"/>
<line x1="205" y1="142.5" x2="194" y2="142.5" stroke="#35384B"/>
<line x1="199.5" y1="148" x2="199.5" y2="137" stroke="#35384B"/>
<line x1="151" y1="147.5" x2="140" y2="147.5" stroke="#35384B"/>
<line x1="145.5" y1="153" x2="145.5" y2="142" stroke="#35384B"/>
<line x1="226" y1="153.5" x2="215" y2="153.5" stroke="#35384B"/>
<line x1="220.5" y1="159" x2="220.5" y2="148" stroke="#35384B"/>
<line x1="172" y1="158.5" x2="161" y2="158.5" stroke="#35384B"/>
<line x1="166.5" y1="164" x2="166.5" y2="153" stroke="#35384B"/>
<line x1="205" y1="163.5" x2="194" y2="163.5" stroke="#35384B"/>
<line x1="199.5" y1="169" x2="199.5" y2="158" stroke="#35384B"/>
<line x1="151" y1="168.5" x2="140" y2="168.5" stroke="#35384B"/>
<line x1="145.5" y1="174" x2="145.5" y2="163" stroke="#35384B"/>
<rect x="186" y="84" width="7" height="7" rx="1" transform="rotate(90 186 84)" fill="#35384B"/>
<rect x="186" y="105" width="7" height="7" rx="1" transform="rotate(90 186 105)" fill="#35384B"/>
<rect x="186" y="126" width="7" height="7" rx="1" transform="rotate(90 186 126)" fill="#35384B"/>
<rect x="186" y="147" width="7" height="7" rx="1" transform="rotate(90 186 147)" fill="#35384B"/>
<line x1="226" y1="6.5" x2="215" y2="6.5" stroke="#35384B"/>
<line x1="220.5" y1="12" x2="220.5" y2="1" stroke="#35384B"/>
<line x1="172" y1="11.5" x2="161" y2="11.5" stroke="#35384B"/>
<line x1="166.5" y1="17" x2="166.5" y2="6" stroke="#35384B"/>
<line x1="205" y1="16.5" x2="194" y2="16.5" stroke="#35384B"/>
<line x1="199.5" y1="22" x2="199.5" y2="11" stroke="#35384B"/>
<line x1="151" y1="21.5" x2="140" y2="21.5" stroke="#35384B"/>
<line x1="145.5" y1="27" x2="145.5" y2="16" stroke="#35384B"/>
<line x1="226" y1="27.5" x2="215" y2="27.5" stroke="#35384B"/>
<line x1="220.5" y1="33" x2="220.5" y2="22" stroke="#35384B"/>
<line x1="172" y1="32.5" x2="161" y2="32.5" stroke="#35384B"/>
<line x1="166.5" y1="38" x2="166.5" y2="27" stroke="#35384B"/>
<line x1="205" y1="37.5" x2="194" y2="37.5" stroke="#35384B"/>
<line x1="199.5" y1="43" x2="199.5" y2="32" stroke="#35384B"/>
<line x1="151" y1="42.5" x2="140" y2="42.5" stroke="#35384B"/>
<line x1="145.5" y1="48" x2="145.5" y2="37" stroke="#35384B"/>
<line x1="226" y1="48.5" x2="215" y2="48.5" stroke="#35384B"/>
<line x1="220.5" y1="54" x2="220.5" y2="43" stroke="#35384B"/>
<line x1="172" y1="53.5" x2="161" y2="53.5" stroke="#35384B"/>
<line x1="166.5" y1="59" x2="166.5" y2="48" stroke="#35384B"/>
<line x1="205" y1="58.5" x2="194" y2="58.5" stroke="#35384B"/>
<line x1="199.5" y1="64" x2="199.5" y2="53" stroke="#35384B"/>
<line x1="151" y1="63.5" x2="140" y2="63.5" stroke="#35384B"/>
<line x1="145.5" y1="69" x2="145.5" y2="58" stroke="#35384B"/>
<line x1="226" y1="69.5" x2="215" y2="69.5" stroke="#35384B"/>
<line x1="220.5" y1="75" x2="220.5" y2="64" stroke="#35384B"/>
<line x1="172" y1="74.5" x2="161" y2="74.5" stroke="#35384B"/>
<line x1="166.5" y1="80" x2="166.5" y2="69" stroke="#35384B"/>
<line x1="205" y1="79.5" x2="194" y2="79.5" stroke="#35384B"/>
<line x1="199.5" y1="85" x2="199.5" y2="74" stroke="#35384B"/>
<line x1="151" y1="84.5" x2="140" y2="84.5" stroke="#35384B"/>
<line x1="145.5" y1="90" x2="145.5" y2="79" stroke="#35384B"/>
<rect x="186" width="7" height="7" rx="1" transform="rotate(90 186 0)" fill="#35384B"/>
<rect x="186" y="21" width="7" height="7" rx="1" transform="rotate(90 186 21)" fill="#35384B"/>
<rect x="186" y="42" width="7" height="7" rx="1" transform="rotate(90 186 42)" fill="#35384B"/>
<rect x="186" y="63" width="7" height="7" rx="1" transform="rotate(90 186 63)" fill="#35384B"/>
<rect y="54" width="40" height="39" rx="4" fill="#37394A"/>
</svg>
